<svg width="63" height="18" viewBox="0 0 63 18" fill="none" xmlns="http://www.w3.org/2000/svg">
<g id="Group 100">
<path id="Rectangle 2" d="M0 9C0 4.02944 4.02944 0 9 0H54C58.9706 0 63 4.02944 63 9C63 13.9706 58.9706 18 54 18H9C4.02944 18 0 13.9706 0 9Z" fill="#F6EFDC"/>
<g id="Tentang">
<path id="Vector" d="M49.8871 6.48877C50.3051 6.48877 50.6828 6.54377 51.0201 6.65377C51.3648 6.75644 51.6544 6.8921 51.8891 7.06077C52.0358 7.16344 52.1494 7.2771 52.2301 7.40177C52.3181 7.52644 52.3621 7.68777 52.3621 7.88577V11.7358C52.3621 12.1244 52.2888 12.4581 52.1421 12.7368C51.9954 13.0228 51.7937 13.2574 51.5371 13.4408C51.2877 13.6314 50.9908 13.7708 50.6461 13.8588C50.3088 13.9468 49.9457 13.9908 49.5571 13.9908C48.8897 13.9908 48.3654 13.8991 47.9841 13.7158C47.6028 13.5398 47.4121 13.2501 47.4121 12.8468C47.4121 12.6781 47.4451 12.5278 47.5111 12.3958C47.5844 12.2711 47.6651 12.1758 47.7531 12.1098C47.9657 12.2271 48.2041 12.3261 48.4681 12.4068C48.7394 12.4874 49.0181 12.5278 49.3041 12.5278C49.7001 12.5278 50.0154 12.4618 50.2501 12.3298C50.4848 12.1978 50.6021 11.9851 50.6021 11.6918V11.5158C50.3014 11.6478 49.9347 11.7138 49.5021 11.7138C49.1721 11.7138 48.8568 11.6661 48.5561 11.5708C48.2628 11.4681 48.0024 11.3141 47.7751 11.1088C47.5551 10.8961 47.3754 10.6248 47.2361 10.2948C47.1041 9.96477 47.0381 9.57244 47.0381 9.11777C47.0381 8.67044 47.1078 8.28177 47.2471 7.95177C47.3938 7.62177 47.5918 7.35044 47.8411 7.13777C48.0978 6.91777 48.3984 6.75644 48.7431 6.65377C49.0951 6.54377 49.4764 6.48877 49.8871 6.48877ZM50.5691 8.08377C50.5178 8.05444 50.4408 8.0251 50.3381 7.99577C50.2428 7.96644 50.1218 7.95177 49.9751 7.95177C49.6158 7.95177 49.3444 8.05444 49.1611 8.25977C48.9851 8.45777 48.8971 8.74377 48.8971 9.11777C48.8971 9.5431 48.9851 9.8511 49.1611 10.0418C49.3444 10.2251 49.5754 10.3168 49.8541 10.3168C50.1548 10.3168 50.3931 10.2471 50.5691 10.1078V8.08377Z" fill="black"/>
<path id="Vector_2" d="M44.2549 8.61177C44.2549 8.38444 44.1889 8.21944 44.0569 8.11677C43.9323 8.00677 43.7599 7.95177 43.5399 7.95177C43.3933 7.95177 43.2466 7.9701 43.0999 8.00677C42.9606 8.04344 42.8396 8.09844 42.7369 8.17177V11.9888C42.6636 12.0108 42.5463 12.0328 42.3849 12.0548C42.2309 12.0768 42.0696 12.0878 41.9009 12.0878C41.7396 12.0878 41.5929 12.0768 41.4609 12.0548C41.3363 12.0328 41.2299 11.9888 41.1419 11.9228C41.0539 11.8568 40.9843 11.7688 40.9329 11.6588C40.8889 11.5414 40.8669 11.3911 40.8669 11.2078V7.90777C40.8669 7.70977 40.9073 7.54844 40.9879 7.42377C41.0759 7.2991 41.1933 7.18544 41.3399 7.08277C41.5893 6.90677 41.9009 6.76377 42.2749 6.65377C42.6563 6.54377 43.0779 6.48877 43.5399 6.48877C44.3686 6.48877 45.0066 6.6721 45.4539 7.03877C45.9013 7.3981 46.1249 7.90044 46.1249 8.54577V11.9888C46.0516 12.0108 45.9343 12.0328 45.7729 12.0548C45.6189 12.0768 45.4576 12.0878 45.2889 12.0878C45.1276 12.0878 44.9809 12.0768 44.8489 12.0548C44.7243 12.0328 44.6179 11.9888 44.5299 11.9228C44.4419 11.8568 44.3723 11.7688 44.3209 11.6588C44.2769 11.5414 44.2549 11.3911 44.2549 11.2078V8.61177Z" fill="black"/>
<path id="Vector_3" d="M37.1716 10.8118C37.2963 10.8118 37.432 10.8008 37.5786 10.7788C37.7326 10.7494 37.8463 10.7128 37.9196 10.6688V9.78877L37.1276 9.85477C36.9223 9.86944 36.7536 9.91344 36.6216 9.98677C36.4896 10.0601 36.4236 10.1701 36.4236 10.3168C36.4236 10.4634 36.4786 10.5844 36.5886 10.6798C36.706 10.7678 36.9003 10.8118 37.1716 10.8118ZM37.0836 6.48877C37.4796 6.48877 37.839 6.5291 38.1616 6.60977C38.4916 6.69044 38.7703 6.8151 38.9976 6.98377C39.2323 7.1451 39.412 7.3541 39.5366 7.61077C39.6613 7.8601 39.7236 8.1571 39.7236 8.50177V10.9658C39.7236 11.1564 39.6686 11.3141 39.5586 11.4388C39.456 11.5561 39.3313 11.6588 39.1846 11.7468C38.708 12.0328 38.037 12.1758 37.1716 12.1758C36.783 12.1758 36.431 12.1391 36.1156 12.0658C35.8076 11.9924 35.54 11.8824 35.3126 11.7358C35.0926 11.5891 34.9203 11.4021 34.7956 11.1748C34.6783 10.9474 34.6196 10.6834 34.6196 10.3828C34.6196 9.87677 34.77 9.4881 35.0706 9.21677C35.3713 8.94544 35.837 8.77677 36.4676 8.71077L37.9086 8.55677V8.47977C37.9086 8.2671 37.8133 8.11677 37.6226 8.02877C37.4393 7.93344 37.1716 7.88577 36.8196 7.88577C36.541 7.88577 36.2696 7.9151 36.0056 7.97377C35.7416 8.03244 35.5033 8.10577 35.2906 8.19377C35.1953 8.12777 35.1146 8.02877 35.0486 7.89677C34.9826 7.75744 34.9496 7.61444 34.9496 7.46777C34.9496 7.2771 34.9936 7.12677 35.0816 7.01677C35.177 6.89944 35.32 6.80044 35.5106 6.71977C35.7233 6.6391 35.9726 6.58044 36.2586 6.54377C36.552 6.5071 36.827 6.48877 37.0836 6.48877Z" fill="black"/>
<path id="Vector_4" d="M32.3492 10.1626C32.3492 10.3532 32.4079 10.4889 32.5252 10.5696C32.6499 10.6502 32.8222 10.6906 33.0422 10.6906C33.1522 10.6906 33.2659 10.6832 33.3832 10.6686C33.5006 10.6466 33.6032 10.6209 33.6912 10.5916C33.7572 10.6722 33.8122 10.7639 33.8562 10.8666C33.9076 10.9619 33.9332 11.0792 33.9332 11.2186C33.9332 11.4972 33.8269 11.7246 33.6142 11.9006C33.4089 12.0766 33.0422 12.1646 32.5142 12.1646C31.8689 12.1646 31.3702 12.0179 31.0182 11.7246C30.6736 11.4312 30.5012 10.9546 30.5012 10.2946V5.58656C30.5819 5.56456 30.6956 5.54256 30.8422 5.52056C30.9962 5.49123 31.1576 5.47656 31.3262 5.47656C31.6489 5.47656 31.8982 5.53523 32.0742 5.65256C32.2576 5.76256 32.3492 6.0009 32.3492 6.36756V7.07156H33.7902C33.8342 7.15223 33.8746 7.2549 33.9112 7.37956C33.9552 7.4969 33.9772 7.6289 33.9772 7.77556C33.9772 8.03223 33.9186 8.21923 33.8012 8.33656C33.6912 8.44656 33.5409 8.50156 33.3502 8.50156H32.3492V10.1626Z" fill="black"/>
<path id="Vector_5" d="M27.4542 8.61177C27.4542 8.38444 27.3882 8.21944 27.2562 8.11677C27.1315 8.00677 26.9592 7.95177 26.7392 7.95177C26.5925 7.95177 26.4458 7.9701 26.2992 8.00677C26.1598 8.04344 26.0388 8.09844 25.9362 8.17177V11.9888C25.8628 12.0108 25.7455 12.0328 25.5842 12.0548C25.4302 12.0768 25.2688 12.0878 25.1002 12.0878C24.9388 12.0878 24.7922 12.0768 24.6602 12.0548C24.5355 12.0328 24.4292 11.9888 24.3412 11.9228C24.2532 11.8568 24.1835 11.7688 24.1322 11.6588C24.0882 11.5414 24.0662 11.3911 24.0662 11.2078V7.90777C24.0662 7.70977 24.1065 7.54844 24.1872 7.42377C24.2752 7.2991 24.3925 7.18544 24.5392 7.08277C24.7885 6.90677 25.1002 6.76377 25.4742 6.65377C25.8555 6.54377 26.2772 6.48877 26.7392 6.48877C27.5678 6.48877 28.2058 6.6721 28.6532 7.03877C29.1005 7.3981 29.3242 7.90044 29.3242 8.54577V11.9888C29.2508 12.0108 29.1335 12.0328 28.9722 12.0548C28.8182 12.0768 28.6568 12.0878 28.4882 12.0878C28.3268 12.0878 28.1802 12.0768 28.0482 12.0548C27.9235 12.0328 27.8172 11.9888 27.7292 11.9228C27.6412 11.8568 27.5715 11.7688 27.5202 11.6588C27.4762 11.5414 27.4542 11.3911 27.4542 11.2078V8.61177Z" fill="black"/>
<path id="Vector_6" d="M20.8561 12.1758C20.4234 12.1758 20.0201 12.1171 19.6461 11.9998C19.2794 11.8751 18.9568 11.6918 18.6781 11.4498C18.4068 11.2078 18.1904 10.9034 18.0291 10.5368C17.8751 10.1701 17.7981 9.7411 17.7981 9.24977C17.7981 8.76577 17.8751 8.35144 18.0291 8.00677C18.1904 7.65477 18.3994 7.36877 18.6561 7.14877C18.9128 6.92144 19.2061 6.75644 19.5361 6.65377C19.8661 6.54377 20.2034 6.48877 20.5481 6.48877C20.9368 6.48877 21.2888 6.54744 21.6041 6.66477C21.9268 6.7821 22.2018 6.94344 22.4291 7.14877C22.6638 7.3541 22.8434 7.59977 22.9681 7.88577C23.1001 8.17177 23.1661 8.48344 23.1661 8.82077C23.1661 9.0701 23.0964 9.26077 22.9571 9.39277C22.8178 9.52477 22.6234 9.6091 22.3741 9.64577L19.6571 10.0528C19.7378 10.2948 19.9028 10.4781 20.1521 10.6028C20.4014 10.7201 20.6874 10.7788 21.0101 10.7788C21.3108 10.7788 21.5931 10.7421 21.8571 10.6688C22.1284 10.5881 22.3484 10.4964 22.5171 10.3938C22.6344 10.4671 22.7334 10.5698 22.8141 10.7018C22.8948 10.8338 22.9351 10.9731 22.9351 11.1198C22.9351 11.4498 22.7811 11.6954 22.4731 11.8568C22.2384 11.9814 21.9744 12.0658 21.6811 12.1098C21.3878 12.1538 21.1128 12.1758 20.8561 12.1758ZM20.5481 7.85277C20.3721 7.85277 20.2181 7.8821 20.0861 7.94077C19.9614 7.99944 19.8588 8.07644 19.7781 8.17177C19.6974 8.25977 19.6351 8.36244 19.5911 8.47977C19.5544 8.58977 19.5324 8.70344 19.5251 8.82077L21.4061 8.51277C21.3841 8.3661 21.3034 8.21944 21.1641 8.07277C21.0248 7.9261 20.8194 7.85277 20.5481 7.85277Z" fill="black"/>
<path id="Vector_7" d="M12.407 6.87378C12.3557 6.79311 12.308 6.68311 12.264 6.54378C12.22 6.40445 12.198 6.25778 12.198 6.10378C12.198 5.81778 12.2603 5.61245 12.385 5.48778C12.517 5.36311 12.6857 5.30078 12.891 5.30078H17.687C17.7383 5.38145 17.786 5.49145 17.83 5.63078C17.874 5.77011 17.896 5.91678 17.896 6.07078C17.896 6.35678 17.83 6.56211 17.698 6.68678C17.5733 6.81145 17.4083 6.87378 17.203 6.87378H15.982V11.9558C15.9013 11.9778 15.773 11.9998 15.597 12.0218C15.4283 12.0438 15.2597 12.0548 15.091 12.0548C14.9223 12.0548 14.772 12.0401 14.64 12.0108C14.5153 11.9888 14.409 11.9448 14.321 11.8788C14.233 11.8128 14.167 11.7211 14.123 11.6038C14.079 11.4864 14.057 11.3324 14.057 11.1418V6.87378H12.407Z" fill="black"/>
</g>
</g>
</svg>
