<svg width="40" height="8" viewBox="0 0 40 8" fill="none" xmlns="http://www.w3.org/2000/svg">
<g id="GrowUs">
<path id="Vector" d="M39.3798 5.40503C39.3798 5.96236 39.1708 6.39869 38.7528 6.71403C38.3348 7.02936 37.7188 7.18703 36.9048 7.18703C36.5968 7.18703 36.3108 7.16503 36.0468 7.12103C35.7828 7.07703 35.5555 7.01103 35.3648 6.92303C35.1815 6.82769 35.0348 6.71036 34.9248 6.57103C34.8221 6.43169 34.7708 6.26669 34.7708 6.07603C34.7708 5.90003 34.8075 5.75336 34.8808 5.63603C34.9541 5.51136 35.0421 5.40869 35.1448 5.32803C35.3575 5.44536 35.5995 5.55169 35.8708 5.64703C36.1495 5.73503 36.4685 5.77903 36.8278 5.77903C37.0551 5.77903 37.2275 5.74603 37.3448 5.68003C37.4695 5.61403 37.5318 5.52603 37.5318 5.41603C37.5318 5.31336 37.4878 5.23269 37.3998 5.17403C37.3118 5.11536 37.1651 5.06769 36.9598 5.03103L36.6298 4.96503C35.9918 4.84036 35.5151 4.64603 35.1998 4.38203C34.8918 4.11069 34.7378 3.72569 34.7378 3.22703C34.7378 2.95569 34.7965 2.71003 34.9138 2.49003C35.0311 2.27003 35.1961 2.08669 35.4088 1.94003C35.6215 1.79336 35.8745 1.67969 36.1678 1.59903C36.4685 1.51836 36.7985 1.47803 37.1578 1.47803C37.4291 1.47803 37.6821 1.50003 37.9168 1.54403C38.1588 1.58069 38.3678 1.63936 38.5438 1.72003C38.7198 1.80069 38.8591 1.90703 38.9618 2.03903C39.0645 2.16369 39.1158 2.31403 39.1158 2.49003C39.1158 2.65869 39.0828 2.80536 39.0168 2.93003C38.9581 3.04736 38.8811 3.14636 38.7858 3.22703C38.7271 3.19036 38.6391 3.15369 38.5218 3.11703C38.4045 3.07303 38.2761 3.03636 38.1368 3.00703C37.9975 2.97036 37.8545 2.94103 37.7078 2.91903C37.5685 2.89703 37.4401 2.88603 37.3228 2.88603C37.0808 2.88603 36.8938 2.91536 36.7618 2.97403C36.6298 3.02536 36.5638 3.10969 36.5638 3.22703C36.5638 3.30769 36.6005 3.37369 36.6738 3.42503C36.7471 3.47636 36.8865 3.52403 37.0918 3.56803L37.4328 3.64503C38.1368 3.80636 38.6355 4.03003 38.9288 4.31603C39.2295 4.59469 39.3798 4.95769 39.3798 5.40503Z" fill="white"/>
<path id="Vector_2" d="M33.6153 4.53586C33.6153 4.93186 33.5456 5.29486 33.4063 5.62486C33.2743 5.94753 33.08 6.2262 32.8233 6.46086C32.5666 6.6882 32.255 6.8642 31.8883 6.98886C31.5216 7.11353 31.1073 7.17586 30.6453 7.17586C30.1833 7.17586 29.769 7.11353 29.4023 6.98886C29.0356 6.8642 28.724 6.6882 28.4673 6.46086C28.2106 6.2262 28.0126 5.94753 27.8733 5.62486C27.7413 5.29486 27.6753 4.93186 27.6753 4.53586V0.333864C27.756 0.319197 27.8843 0.300863 28.0603 0.278863C28.2363 0.24953 28.405 0.234863 28.5663 0.234863C28.735 0.234863 28.8816 0.24953 29.0063 0.278863C29.1383 0.300863 29.2483 0.344863 29.3363 0.410863C29.4243 0.476863 29.4903 0.56853 29.5343 0.685863C29.5783 0.803197 29.6003 0.957197 29.6003 1.14786V4.50286C29.6003 4.85486 29.6956 5.12986 29.8863 5.32786C30.0843 5.52586 30.3373 5.62486 30.6453 5.62486C30.9606 5.62486 31.2136 5.52586 31.4043 5.32786C31.595 5.12986 31.6903 4.85486 31.6903 4.50286V0.333864C31.771 0.319197 31.8993 0.300863 32.0753 0.278863C32.2513 0.24953 32.42 0.234863 32.5813 0.234863C32.75 0.234863 32.8966 0.24953 33.0213 0.278863C33.1533 0.300863 33.2633 0.344863 33.3513 0.410863C33.4393 0.476863 33.5053 0.56853 33.5493 0.685863C33.5933 0.803197 33.6153 0.957197 33.6153 1.14786V4.53586Z" fill="white"/>
<path id="Vector_3" d="M21.9109 6.83495C21.8083 6.92295 21.6689 6.99261 21.4929 7.04395C21.3169 7.10261 21.1079 7.13195 20.8659 7.13195C20.5653 7.13195 20.3049 7.08795 20.0849 6.99995C19.8649 6.91928 19.7183 6.80195 19.6449 6.64795C19.5643 6.47195 19.4689 6.19328 19.3589 5.81195C19.2563 5.43061 19.1536 5.01261 19.0509 4.55795C18.9483 4.10328 18.8493 3.64128 18.7539 3.17195C18.6659 2.70261 18.5963 2.28828 18.5449 1.92895C18.6476 1.82628 18.7833 1.73828 18.9519 1.66495C19.1279 1.58428 19.3186 1.54395 19.5239 1.54395C19.7806 1.54395 19.9896 1.60261 20.1509 1.71995C20.3196 1.82995 20.4223 2.02428 20.4589 2.30295C20.5323 2.86028 20.5946 3.32228 20.6459 3.68895C20.6973 4.04828 20.7376 4.34528 20.7669 4.57995C20.8036 4.80728 20.8293 4.98328 20.8439 5.10795C20.8659 5.22528 20.8843 5.32061 20.8989 5.39395H20.9429C20.9649 5.27661 21.0016 5.10795 21.0529 4.88795C21.1116 4.66061 21.1776 4.40395 21.2509 4.11795C21.3243 3.83195 21.4013 3.52395 21.4819 3.19395C21.5626 2.85661 21.6433 2.52295 21.7239 2.19295C21.8706 2.11228 22.0136 2.04995 22.1529 2.00595C22.2996 1.96195 22.4793 1.93995 22.6919 1.93995C22.9486 1.93995 23.1686 1.98028 23.3519 2.06095C23.5353 2.14161 23.6526 2.26628 23.7039 2.43495C23.7919 2.75761 23.8763 3.07295 23.9569 3.38095C24.0376 3.68161 24.1109 3.96395 24.1769 4.22795C24.2429 4.48461 24.3016 4.71561 24.3529 4.92095C24.4043 5.11895 24.4409 5.27661 24.4629 5.39395H24.5179C24.5986 4.82928 24.6756 4.24261 24.7489 3.63395C24.8296 3.02528 24.9029 2.40561 24.9689 1.77495C25.1009 1.69428 25.2403 1.63561 25.3869 1.59895C25.5336 1.56228 25.6803 1.54395 25.8269 1.54395C26.0836 1.54395 26.2963 1.59895 26.4649 1.70895C26.6336 1.81895 26.7179 2.00961 26.7179 2.28095C26.7179 2.39828 26.6996 2.57428 26.6629 2.80895C26.6263 3.04361 26.5786 3.30761 26.5199 3.60095C26.4613 3.89428 26.3916 4.20228 26.3109 4.52495C26.2376 4.84761 26.1606 5.15928 26.0799 5.45995C26.0066 5.76061 25.9333 6.03195 25.8599 6.27395C25.7939 6.51595 25.7353 6.70295 25.6839 6.83495C25.5813 6.92295 25.4236 6.99261 25.2109 7.04395C24.9983 7.10261 24.7709 7.13195 24.5289 7.13195C23.9129 7.13195 23.5499 6.97795 23.4399 6.66995C23.3959 6.53795 23.3409 6.37295 23.2749 6.17495C23.2089 5.96961 23.1393 5.74595 23.0659 5.50395C22.9926 5.26195 22.9229 5.01261 22.8569 4.75595C22.7909 4.49195 22.7359 4.23895 22.6919 3.99695C22.6406 4.25361 22.5783 4.52128 22.5049 4.79995C22.4316 5.07128 22.3546 5.33895 22.2739 5.60295C22.2006 5.85961 22.1309 6.09795 22.0649 6.31795C21.9989 6.53061 21.9476 6.70295 21.9109 6.83495Z" fill="white"/>
<path id="Vector_4" d="M18.0162 4.32677C18.0162 4.78144 17.9465 5.18844 17.8072 5.54777C17.6679 5.89977 17.4699 6.19677 17.2132 6.43877C16.9639 6.68077 16.6632 6.8641 16.3112 6.98877C15.9592 7.11344 15.5669 7.17577 15.1342 7.17577C14.7015 7.17577 14.3092 7.10977 13.9572 6.97777C13.6052 6.84577 13.3009 6.65877 13.0442 6.41677C12.7949 6.16744 12.6005 5.86677 12.4612 5.51477C12.3219 5.16277 12.2522 4.76677 12.2522 4.32677C12.2522 3.8941 12.3219 3.50177 12.4612 3.14977C12.6005 2.79777 12.7949 2.50077 13.0442 2.25877C13.3009 2.00944 13.6052 1.81877 13.9572 1.68677C14.3092 1.55477 14.7015 1.48877 15.1342 1.48877C15.5669 1.48877 15.9592 1.55844 16.3112 1.69777C16.6632 1.82977 16.9639 2.02044 17.2132 2.26977C17.4699 2.51177 17.6679 2.80877 17.8072 3.16077C17.9465 3.51277 18.0162 3.90144 18.0162 4.32677ZM14.1662 4.32677C14.1662 4.7741 14.2505 5.11877 14.4192 5.36077C14.5952 5.59544 14.8372 5.71277 15.1452 5.71277C15.4532 5.71277 15.6879 5.59177 15.8492 5.34977C16.0179 5.10777 16.1022 4.76677 16.1022 4.32677C16.1022 3.88677 16.0179 3.54944 15.8492 3.31477C15.6805 3.07277 15.4422 2.95177 15.1342 2.95177C14.8262 2.95177 14.5879 3.07277 14.4192 3.31477C14.2505 3.54944 14.1662 3.88677 14.1662 4.32677Z" fill="white"/>
<path id="Vector_5" d="M10.0348 6.989C9.96146 7.011 9.84413 7.033 9.68279 7.055C9.52879 7.077 9.36746 7.088 9.1988 7.088C9.03746 7.088 8.89079 7.077 8.75879 7.055C8.63413 7.033 8.52779 6.989 8.43979 6.923C8.35179 6.857 8.28213 6.769 8.23079 6.659C8.18679 6.54167 8.16479 6.39133 8.16479 6.208V2.908C8.16479 2.73933 8.19413 2.59633 8.25279 2.479C8.31879 2.35433 8.41046 2.24433 8.52779 2.149C8.64513 2.05367 8.78813 1.96933 8.95679 1.896C9.13279 1.81533 9.31979 1.74567 9.51779 1.687C9.71579 1.62833 9.92113 1.58433 10.1338 1.555C10.3465 1.51833 10.5591 1.5 10.7718 1.5C11.1238 1.5 11.4025 1.56967 11.6078 1.709C11.8131 1.841 11.9158 2.061 11.9158 2.369C11.9158 2.47167 11.9011 2.57433 11.8718 2.677C11.8425 2.77233 11.8058 2.86033 11.7618 2.941C11.6078 2.941 11.4501 2.94833 11.2888 2.963C11.1275 2.97767 10.9698 2.99967 10.8158 3.029C10.6618 3.05833 10.5151 3.09133 10.3758 3.128C10.2438 3.15733 10.1301 3.194 10.0348 3.238V6.989Z" fill="white"/>
<path id="Vector_6" d="M7.0421 5.91097C7.0421 6.13831 7.00176 6.30697 6.9211 6.41697C6.84043 6.52697 6.7121 6.63331 6.5361 6.73597C6.43343 6.79464 6.3051 6.85331 6.1511 6.91197C5.9971 6.96331 5.82843 7.00731 5.6451 7.04397C5.46176 7.08797 5.26743 7.12097 5.0621 7.14297C4.8641 7.16497 4.6661 7.17597 4.4681 7.17597C3.9401 7.17597 3.4451 7.10631 2.9831 6.96697C2.5211 6.82031 2.11776 6.60397 1.7731 6.31797C1.43576 6.02464 1.1681 5.66164 0.970096 5.22897C0.772096 4.79631 0.673096 4.29397 0.673096 3.72197C0.673096 3.12064 0.779429 2.59631 0.992096 2.14897C1.2121 1.70164 1.4981 1.33131 1.8501 1.03797C2.20943 0.737306 2.61643 0.513639 3.0711 0.366972C3.5331 0.220306 4.0061 0.146973 4.4901 0.146973C5.18676 0.146973 5.73676 0.260639 6.1401 0.487973C6.55076 0.707973 6.7561 0.997639 6.7561 1.35697C6.7561 1.54764 6.70843 1.71264 6.6131 1.85197C6.51776 1.99131 6.40776 2.10131 6.2831 2.18197C6.09976 2.07197 5.86876 1.96564 5.5901 1.86297C5.31876 1.75297 5.01076 1.69797 4.6661 1.69797C4.0501 1.69797 3.55876 1.87397 3.1921 2.22597C2.83276 2.57797 2.6531 3.06564 2.6531 3.68897C2.6531 4.02631 2.70076 4.31964 2.7961 4.56897C2.89876 4.81097 3.03443 5.01264 3.2031 5.17397C3.37176 5.32797 3.5661 5.44531 3.7861 5.52597C4.0061 5.59931 4.24076 5.63597 4.4901 5.63597C4.65143 5.63597 4.79443 5.62131 4.9191 5.59197C5.04376 5.56264 5.1391 5.52964 5.2051 5.49297V4.45897H4.0281C3.9841 4.37831 3.9401 4.27197 3.8961 4.13997C3.85943 4.00797 3.8411 3.86864 3.8411 3.72197C3.8411 3.45797 3.89976 3.26731 4.0171 3.14997C4.14176 3.03264 4.29943 2.97397 4.4901 2.97397H6.3491C6.5691 2.97397 6.73776 3.03631 6.8551 3.16097C6.97976 3.27831 7.0421 3.44697 7.0421 3.66697V5.91097Z" fill="white"/>
</g>
</svg>
